<?xml version="1.0" standalone="no"?><!DOCTYPE svg PUBLIC "-//W3C//DTD SVG 1.1//EN" "http://www.w3.org/Graphics/SVG/1.1/DTD/svg11.dtd"><svg t="1683517165625" class="icon" viewBox="0 0 1024 1024" version="1.1" xmlns="http://www.w3.org/2000/svg" p-id="4902" width="32" height="32" xmlns:xlink="http://www.w3.org/1999/xlink"><path d="M902.4 576c-25.6 6.4-51.2 12.8-83.2 12.8-6.4 32-19.2 57.6-32 83.2 19.2 25.6 32 44.8 51.2 70.4L742.4 832c-19.2-12.8-44.8-32-70.4-51.2-25.6 12.8-51.2 25.6-83.2 32-6.4 32-6.4 57.6-12.8 83.2L448 896c-6.4-25.6-12.8-51.2-12.8-83.2-32-6.4-57.6-19.2-83.2-32-25.6 19.2-44.8 32-70.4 51.2L192 742.4c12.8-19.2 32-44.8 51.2-70.4-12.8-25.6-25.6-51.2-32-83.2C172.8 588.8 147.2 582.4 121.6 576L121.6 448c25.6-6.4 51.2-12.8 83.2-12.8 6.4-32 19.2-57.6 32-83.2C217.6 326.4 204.8 300.8 192 281.6L281.6 192c19.2 12.8 44.8 32 70.4 51.2 25.6-12.8 51.2-25.6 83.2-32C435.2 172.8 441.6 147.2 448 121.6l128 0c6.4 25.6 12.8 51.2 12.8 83.2 32 6.4 57.6 19.2 83.2 32 25.6-19.2 44.8-32 70.4-51.2L832 281.6c-12.8 19.2-32 44.8-51.2 70.4 12.8 25.6 25.6 51.2 32 83.2 32 6.4 57.6 6.4 83.2 12.8L896 576zM915.2 390.4C896 390.4 883.2 384 864 384c-6.4-6.4-6.4-19.2-12.8-25.6 12.8-12.8 19.2-32 32-44.8C896 288 896 262.4 876.8 243.2l-89.6-89.6c-12.8-12.8-25.6-19.2-38.4-19.2-12.8 0-19.2 0-32 6.4-12.8 6.4-25.6 19.2-44.8 32-6.4-6.4-19.2-6.4-25.6-12.8 0-19.2-6.4-38.4-12.8-51.2C627.2 83.2 601.6 64 576 64L448 64C422.4 64 396.8 83.2 390.4 108.8 390.4 121.6 384 140.8 384 160 371.2 166.4 364.8 166.4 352 172.8 339.2 160 326.4 153.6 313.6 140.8 300.8 134.4 288 134.4 281.6 134.4c-12.8 0-32 6.4-38.4 19.2L147.2 243.2C128 262.4 128 288 140.8 313.6c6.4 12.8 19.2 25.6 32 44.8C166.4 364.8 166.4 371.2 160 384 140.8 384 121.6 390.4 108.8 390.4 83.2 396.8 64 422.4 64 448l0 128c0 25.6 19.2 51.2 44.8 57.6C121.6 633.6 140.8 640 160 640c6.4 6.4 6.4 19.2 12.8 25.6-12.8 12.8-19.2 32-32 44.8C128 736 128 761.6 147.2 780.8l89.6 89.6c12.8 12.8 25.6 19.2 38.4 19.2 12.8 0 19.2 0 32-6.4 12.8-6.4 25.6-19.2 44.8-32 6.4 6.4 19.2 6.4 25.6 12.8 0 19.2 6.4 38.4 12.8 51.2C396.8 940.8 422.4 960 448 960l128 0c25.6 0 51.2-19.2 57.6-44.8 6.4-19.2 6.4-32 12.8-51.2 6.4-6.4 19.2-6.4 25.6-12.8 12.8 12.8 32 19.2 44.8 32 6.4 6.4 19.2 6.4 32 6.4 12.8 0 32-6.4 38.4-19.2l89.6-89.6c19.2-19.2 19.2-51.2 6.4-70.4-6.4-12.8-19.2-25.6-32-44.8 6.4-6.4 6.4-19.2 12.8-25.6 19.2 0 38.4-6.4 51.2-6.4C940.8 627.2 960 601.6 960 576L960 448C960 422.4 940.8 396.8 915.2 390.4zM512 627.2C448 627.2 396.8 576 396.8 512 396.8 448 448 403.2 512 403.2 576 403.2 620.8 448 620.8 512 620.8 576 576 627.2 512 627.2zM512 345.6C422.4 345.6 345.6 422.4 345.6 512s76.8 166.4 166.4 166.4 166.4-76.8 166.4-166.4S601.6 345.6 512 345.6z" p-id="4903"></path></svg>