<?xml version="1.0" standalone="no"?><!DOCTYPE svg PUBLIC "-//W3C//DTD SVG 1.1//EN" "http://www.w3.org/Graphics/SVG/1.1/DTD/svg11.dtd"><svg t="1683517490184" class="icon" viewBox="0 0 1024 1024" version="1.1" xmlns="http://www.w3.org/2000/svg" p-id="5963" xmlns:xlink="http://www.w3.org/1999/xlink" width="32" height="32"><path d="M862.709333 116.042667a32 32 0 1 1 45.248 45.248L455.445333 613.813333a32 32 0 1 1-45.258666-45.258666L862.709333 116.053333zM853.333333 448a32 32 0 0 1 64 0v352c0 64.8-52.533333 117.333333-117.333333 117.333333H224c-64.8 0-117.333333-52.533333-117.333333-117.333333V224c0-64.8 52.533333-117.333333 117.333333-117.333333h341.333333a32 32 0 0 1 0 64H224a53.333333 53.333333 0 0 0-53.333333 53.333333v576a53.333333 53.333333 0 0 0 53.333333 53.333333h576a53.333333 53.333333 0 0 0 53.333333-53.333333V448z" fill="#000000" p-id="5964"></path></svg>